# Blender v3.2.1 OBJ File: ''
# www.blender.org
mtllib pestle_inside.mtl
v 0.578125 0.832748 0.320115
v 0.578125 0.772953 0.175759
v 0.578125 0.731698 0.361971
v 0.578125 0.671904 0.217615
v 0.421875 0.772953 0.175759
v 0.421875 0.832748 0.320115
v 0.421875 0.671904 0.217615
v 0.421875 0.731698 0.361971
v 0.421875 0.772953 0.175759
v 0.578125 0.772953 0.175759
v 0.421875 0.832748 0.320115
v 0.578125 0.832748 0.320115
v 0.421875 0.731698 0.361971
v 0.578125 0.731698 0.361971
v 0.421875 0.671904 0.217615
v 0.578125 0.671904 0.217615
v 0.421875 0.832748 0.320115
v 0.578125 0.832748 0.320115
v 0.421875 0.731698 0.361971
v 0.578125 0.731698 0.361971
v 0.578125 0.772953 0.175759
v 0.421875 0.772953 0.175759
v 0.578125 0.671904 0.217615
v 0.421875 0.671904 0.217615
vt 0.000000 0.000000
vt 0.000000 0.109375
vt 0.156250 0.000000
vt 0.156250 0.109375
vt 0.000000 0.000000
vt 0.000000 0.109375
vt 0.156250 0.000000
vt 0.156250 0.109375
vt 0.000000 0.156250
vt 0.156250 0.156250
vt 0.000000 0.000000
vt 0.156250 0.000000
vt 0.156250 0.000000
vt 0.000000 0.000000
vt 0.156250 0.156250
vt 0.000000 0.156250
vt 0.000000 0.000000
vt 0.000000 0.109375
vt 0.156250 0.000000
vt 0.156250 0.109375
vt 0.000000 0.000000
vt 0.000000 0.109375
vt 0.156250 0.000000
vt 0.156250 0.109375
vn 1.0000 0.0000 0.0000
vn -1.0000 0.0000 0.0000
vn 0.0000 0.9239 -0.3827
vn 0.0000 -0.9239 0.3827
vn 0.0000 0.3827 0.9239
vn 0.0000 -0.3827 -0.9239
usemtl m_0
s off
f 1/1/1 3/2/1 2/3/1
f 3/2/1 4/4/1 2/3/1
f 5/5/2 7/6/2 6/7/2
f 7/6/2 8/8/2 6/7/2
f 9/9/3 11/10/3 10/11/3
f 11/10/3 12/12/3 10/11/3
f 13/13/4 15/14/4 14/15/4
f 15/14/4 16/16/4 14/15/4
f 17/17/5 19/18/5 18/19/5
f 19/18/5 20/20/5 18/19/5
f 21/21/6 23/22/6 22/23/6
f 23/22/6 24/24/6 22/23/6
v 0.625000 0.316568 0.584661
v 0.625000 0.220897 0.353691
v 0.625000 0.258826 0.608579
v 0.625000 0.163155 0.377609
v 0.375000 0.220897 0.353691
v 0.375000 0.316568 0.584661
v 0.375000 0.163155 0.377609
v 0.375000 0.258826 0.608579
v 0.375000 0.220897 0.353691
v 0.625000 0.220897 0.353691
v 0.375000 0.316568 0.584661
v 0.625000 0.316568 0.584661
v 0.375000 0.258826 0.608579
v 0.625000 0.258826 0.608579
v 0.375000 0.163155 0.377609
v 0.625000 0.163155 0.377609
v 0.375000 0.316568 0.584661
v 0.625000 0.316568 0.584661
v 0.375000 0.258826 0.608579
v 0.625000 0.258826 0.608579
v 0.625000 0.220897 0.353691
v 0.375000 0.220897 0.353691
v 0.625000 0.163155 0.377609
v 0.375000 0.163155 0.377609
vt 0.000000 0.000000
vt 0.000000 0.062500
vt 0.250000 0.000000
vt 0.250000 0.062500
vt 0.000000 0.000000
vt 0.000000 0.062500
vt 0.250000 0.000000
vt 0.250000 0.062500
vt 0.000000 0.250000
vt 0.250000 0.250000
vt 0.000000 0.000000
vt 0.250000 0.000000
vt 0.250000 0.000000
vt 0.000000 0.000000
vt 0.250000 0.250000
vt 0.000000 0.250000
vt 0.000000 0.000000
vt 0.000000 0.062500
vt 0.250000 0.000000
vt 0.250000 0.062500
vt 0.000000 0.000000
vt 0.000000 0.062500
vt 0.250000 0.000000
vt 0.250000 0.062500
vn 1.0000 0.0000 0.0000
vn -1.0000 0.0000 0.0000
vn 0.0000 0.9239 -0.3827
vn 0.0000 -0.9239 0.3827
vn 0.0000 0.3827 0.9239
vn 0.0000 -0.3827 -0.9239
usemtl m_0
s off
f 25/25/7 27/26/7 26/27/7
f 27/26/7 28/28/7 26/27/7
f 29/29/8 31/30/8 30/31/8
f 31/30/8 32/32/8 30/31/8
f 33/33/9 35/34/9 34/35/9
f 35/34/9 36/36/9 34/35/9
f 37/37/10 39/38/10 38/39/10
f 39/38/10 40/40/10 38/39/10
f 41/41/11 43/42/11 42/43/11
f 43/42/11 44/44/11 42/43/11
f 45/45/12 47/46/12 46/47/12
f 47/46/12 48/48/12 46/47/12
v 0.546875 0.748611 0.321141
v 0.546875 0.712734 0.234527
v 0.546875 0.286671 0.512483
v 0.546875 0.250794 0.425869
v 0.453125 0.712734 0.234527
v 0.453125 0.748611 0.321141
v 0.453125 0.250794 0.425869
v 0.453125 0.286671 0.512483
v 0.453125 0.712734 0.234527
v 0.546875 0.712734 0.234527
v 0.453125 0.748611 0.321141
v 0.546875 0.748611 0.321141
v 0.453125 0.286671 0.512483
v 0.546875 0.286671 0.512483
v 0.453125 0.250794 0.425869
v 0.546875 0.250794 0.425869
v 0.453125 0.748611 0.321141
v 0.546875 0.748611 0.321141
v 0.453125 0.286671 0.512483
v 0.546875 0.286671 0.512483
v 0.546875 0.712734 0.234527
v 0.453125 0.712734 0.234527
v 0.546875 0.250794 0.425869
v 0.453125 0.250794 0.425869
vt 0.000000 0.000000
vt 0.000000 0.500000
vt 0.093750 0.000000
vt 0.093750 0.500000
vt 0.000000 0.000000
vt 0.000000 0.500000
vt 0.093750 0.000000
vt 0.093750 0.500000
vt 0.000000 0.093750
vt 0.093750 0.093750
vt 0.000000 0.000000
vt 0.093750 0.000000
vt 0.093750 0.000000
vt 0.000000 0.000000
vt 0.093750 0.093750
vt 0.000000 0.093750
vt 0.000000 0.000000
vt 0.000000 0.500000
vt 0.093750 0.000000
vt 0.093750 0.500000
vt 0.000000 0.000000
vt 0.000000 0.500000
vt 0.093750 0.000000
vt 0.093750 0.500000
vn 1.0000 0.0000 0.0000
vn -1.0000 -0.0000 0.0000
vn 0.0000 0.9239 -0.3827
vn 0.0000 -0.9239 0.3827
vn 0.0000 0.3827 0.9239
vn 0.0000 -0.3827 -0.9239
usemtl m_0
s off
f 49/49/13 51/50/13 50/51/13
f 51/50/13 52/52/13 50/51/13
f 53/53/14 55/54/14 54/55/14
f 55/54/14 56/56/14 54/55/14
f 57/57/15 59/58/15 58/59/15
f 59/58/15 60/60/15 58/59/15
f 61/61/16 63/62/16 62/63/16
f 63/62/16 64/64/16 62/63/16
f 65/65/17 67/66/17 66/67/17
f 67/66/17 68/68/17 66/67/17
f 69/69/18 71/70/18 70/71/18
f 71/70/18 72/72/18 70/71/18
