# Blender v3.2.1 OBJ File: ''
# www.blender.org
mtllib saucepan.mtl
v 1.031250 0.500000 0.671875
v 1.031250 0.500000 0.328125
v 1.031250 0.437500 0.671875
v 1.031250 0.437500 0.328125
v 0.968750 0.500000 0.328125
v 0.968750 0.500000 0.671875
v 0.968750 0.437500 0.328125
v 0.968750 0.437500 0.671875
vt 0.515625 0.812500
vt 0.531250 0.812500
vt 0.531250 0.828125
vt 0.515625 0.828125
vt 0.515625 0.953125
vt 0.609375 0.953125
vt 0.609375 0.968750
vt 0.515625 0.968750
vt 0.187500 0.468750
vt 0.203125 0.468750
vt 0.203125 0.484375
vt 0.187500 0.484375
vt 0.046875 0.468750
vt 0.140625 0.468750
vt 0.140625 0.484375
vt 0.046875 0.484375
vt 0.531250 0.953125
vt 0.515625 0.953125
vt 0.515625 0.859375
vt 0.531250 0.859375
vt 0.156250 0.390625
vt 0.140625 0.390625
vt 0.140625 0.484375
vt 0.156250 0.484375
vn 0.0000 0.0000 -1.0000
vn 1.0000 0.0000 0.0000
vn 0.0000 0.0000 1.0000
vn -1.0000 0.0000 0.0000
vn 0.0000 1.0000 0.0000
vn 0.0000 -1.0000 -0.0000
usemtl m_0
s off
f 4/1/1 7/2/1 5/3/1 2/4/1
f 3/5/2 4/6/2 2/7/2 1/8/2
f 8/9/3 3/10/3 1/11/3 6/12/3
f 7/13/4 8/14/4 6/15/4 5/16/4
f 6/17/5 1/18/5 2/19/5 5/20/5
f 7/21/6 4/22/6 3/23/6 8/24/6
v 0.968750 0.484375 0.656250
v 0.968750 0.484375 0.593750
v 0.968750 0.468750 0.656250
v 0.968750 0.468750 0.593750
v 0.906250 0.484375 0.593750
v 0.906250 0.484375 0.656250
v 0.906250 0.468750 0.593750
v 0.906250 0.468750 0.656250
vt 0.515625 0.796875
vt 0.531250 0.796875
vt 0.531250 0.812500
vt 0.515625 0.812500
vt 0.515625 0.781250
vt 0.531250 0.781250
vt 0.531250 0.796875
vt 0.515625 0.796875
vt 0.515625 0.765625
vt 0.531250 0.765625
vt 0.531250 0.781250
vt 0.515625 0.781250
vt 0.515625 0.750000
vt 0.531250 0.750000
vt 0.531250 0.765625
vt 0.515625 0.765625
vt 0.531250 0.750000
vt 0.515625 0.750000
vt 0.515625 0.734375
vt 0.531250 0.734375
vt 0.531250 0.718750
vt 0.515625 0.718750
vt 0.515625 0.734375
vt 0.531250 0.734375
vn 0.0000 0.0000 -1.0000
vn 1.0000 0.0000 0.0000
vn 0.0000 0.0000 1.0000
vn -1.0000 0.0000 0.0000
vn 0.0000 1.0000 0.0000
vn 0.0000 -1.0000 -0.0000
usemtl m_0
s off
f 12/25/7 15/26/7 13/27/7 10/28/7
f 11/29/8 12/30/8 10/31/8 9/32/8
f 16/33/9 11/34/9 9/35/9 14/36/9
f 15/37/10 16/38/10 14/39/10 13/40/10
f 14/41/11 9/42/11 10/43/11 13/44/11
f 15/45/12 12/46/12 11/47/12 16/48/12
v 0.968750 0.484375 0.406250
v 0.968750 0.484375 0.343750
v 0.968750 0.468750 0.406250
v 0.968750 0.468750 0.343750
v 0.906250 0.484375 0.343750
v 0.906250 0.484375 0.406250
v 0.906250 0.468750 0.343750
v 0.906250 0.468750 0.406250
vt 0.515625 0.703125
vt 0.531250 0.703125
vt 0.531250 0.718750
vt 0.515625 0.718750
vt 0.515625 0.687500
vt 0.531250 0.687500
vt 0.531250 0.703125
vt 0.515625 0.703125
vt 0.515625 0.671875
vt 0.531250 0.671875
vt 0.531250 0.687500
vt 0.515625 0.687500
vt 0.515625 0.656250
vt 0.531250 0.656250
vt 0.531250 0.671875
vt 0.515625 0.671875
vt 0.531250 0.656250
vt 0.515625 0.656250
vt 0.515625 0.640625
vt 0.531250 0.640625
vt 0.421875 0.468750
vt 0.406250 0.468750
vt 0.406250 0.484375
vt 0.421875 0.484375
vn 0.0000 0.0000 -1.0000
vn 1.0000 0.0000 0.0000
vn 0.0000 0.0000 1.0000
vn -1.0000 0.0000 0.0000
vn 0.0000 1.0000 0.0000
vn 0.0000 -1.0000 0.0000
usemtl m_0
s off
f 20/49/13 23/50/13 21/51/13 18/52/13
f 19/53/14 20/54/14 18/55/14 17/56/14
f 24/57/15 19/58/15 17/59/15 22/60/15
f 23/61/16 24/62/16 22/63/16 21/64/16
f 22/65/17 17/66/17 18/67/17 21/68/17
f 23/69/18 20/70/18 19/71/18 24/72/18
v 0.906250 0.562500 0.843750
v 0.906250 0.562500 0.156250
v 0.906250 0.500000 0.843750
v 0.906250 0.500000 0.156250
v 0.843750 0.562500 0.156250
v 0.843750 0.562500 0.843750
v 0.843750 0.500000 0.156250
v 0.843750 0.500000 0.843750
vt 0.421875 0.468750
vt 0.437500 0.468750
vt 0.437500 0.484375
vt 0.421875 0.484375
vt 0.343750 0.656250
vt 0.515625 0.656250
vt 0.515625 0.671875
vt 0.343750 0.671875
vt 0.437500 0.468750
vt 0.453125 0.468750
vt 0.453125 0.484375
vt 0.437500 0.484375
vt 0.343750 0.640625
vt 0.515625 0.640625
vt 0.515625 0.656250
vt 0.343750 0.656250
vt 0.359375 0.640625
vt 0.343750 0.640625
vt 0.343750 0.468750
vt 0.359375 0.468750
vt 0.375000 0.468750
vt 0.359375 0.468750
vt 0.359375 0.640625
vt 0.375000 0.640625
vn 0.0000 0.0000 -1.0000
vn 1.0000 0.0000 0.0000
vn 0.0000 -0.0000 1.0000
vn -1.0000 -0.0000 0.0000
vn 0.0000 1.0000 0.0000
vn 0.0000 -1.0000 -0.0000
usemtl m_0
s off
f 28/73/19 31/74/19 29/75/19 26/76/19
f 27/77/20 28/78/20 26/79/20 25/80/20
f 32/81/21 27/82/21 25/83/21 30/84/21
f 31/85/22 32/86/22 30/87/22 29/88/22
f 30/89/23 25/90/23 26/91/23 29/92/23
f 31/93/24 28/94/24 27/95/24 32/96/24
v 0.843750 0.562500 0.156250
v 0.843750 0.562500 0.093750
v 0.843750 0.500000 0.156250
v 0.843750 0.500000 0.093750
v 0.156250 0.562500 0.093750
v 0.156250 0.562500 0.156250
v 0.156250 0.500000 0.093750
v 0.156250 0.500000 0.156250
vt 0.375000 0.625000
vt 0.546875 0.625000
vt 0.546875 0.640625
vt 0.375000 0.640625
vt 0.453125 0.468750
vt 0.468750 0.468750
vt 0.468750 0.484375
vt 0.453125 0.484375
vt 0.375000 0.609375
vt 0.546875 0.609375
vt 0.546875 0.625000
vt 0.375000 0.625000
vt 0.468750 0.468750
vt 0.484375 0.468750
vt 0.484375 0.484375
vt 0.468750 0.484375
vt 0.546875 0.609375
vt 0.375000 0.609375
vt 0.375000 0.593750
vt 0.546875 0.593750
vt 0.546875 0.578125
vt 0.375000 0.578125
vt 0.375000 0.593750
vt 0.546875 0.593750
vn 0.0000 0.0000 -1.0000
vn 1.0000 -0.0000 0.0000
vn 0.0000 -0.0000 1.0000
vn -1.0000 0.0000 0.0000
vn 0.0000 1.0000 0.0000
vn 0.0000 -1.0000 0.0000
usemtl m_0
s off
f 36/97/25 39/98/25 37/99/25 34/100/25
f 35/101/26 36/102/26 34/103/26 33/104/26
f 40/105/27 35/106/27 33/107/27 38/108/27
f 39/109/28 40/110/28 38/111/28 37/112/28
f 38/113/29 33/114/29 34/115/29 37/116/29
f 39/117/30 36/118/30 35/119/30 40/120/30
v 0.156250 0.562500 0.843750
v 0.156250 0.562500 0.156250
v 0.156250 0.500000 0.843750
v 0.156250 0.500000 0.156250
v 0.093750 0.562500 0.156250
v 0.093750 0.562500 0.843750
v 0.093750 0.500000 0.156250
v 0.093750 0.500000 0.843750
vt 0.484375 0.468750
vt 0.500000 0.468750
vt 0.500000 0.484375
vt 0.484375 0.484375
vt 0.375000 0.562500
vt 0.546875 0.562500
vt 0.546875 0.578125
vt 0.375000 0.578125
vt 0.500000 0.468750
vt 0.515625 0.468750
vt 0.515625 0.484375
vt 0.500000 0.484375
vt 0.171875 0.546875
vt 0.343750 0.546875
vt 0.343750 0.562500
vt 0.171875 0.562500
vt 0.390625 0.562500
vt 0.375000 0.562500
vt 0.375000 0.390625
vt 0.390625 0.390625
vt 0.406250 0.390625
vt 0.390625 0.390625
vt 0.390625 0.562500
vt 0.406250 0.562500
vn 0.0000 0.0000 -1.0000
vn 1.0000 0.0000 0.0000
vn 0.0000 -0.0000 1.0000
vn -1.0000 -0.0000 0.0000
vn 0.0000 1.0000 0.0000
vn 0.0000 -1.0000 -0.0000
usemtl m_0
s off
f 44/121/31 47/122/31 45/123/31 42/124/31
f 43/125/32 44/126/32 42/127/32 41/128/32
f 48/129/33 43/130/33 41/131/33 46/132/33
f 47/133/34 48/134/34 46/135/34 45/136/34
f 46/137/35 41/138/35 42/139/35 45/140/35
f 47/141/36 44/142/36 43/143/36 48/144/36
v 0.843750 0.562500 0.906250
v 0.843750 0.562500 0.843750
v 0.843750 0.500000 0.906250
v 0.843750 0.500000 0.843750
v 0.156250 0.562500 0.843750
v 0.156250 0.562500 0.906250
v 0.156250 0.500000 0.843750
v 0.156250 0.500000 0.906250
vt 0.406250 0.546875
vt 0.578125 0.546875
vt 0.578125 0.562500
vt 0.406250 0.562500
vt 0.515625 0.468750
vt 0.531250 0.468750
vt 0.531250 0.484375
vt 0.515625 0.484375
vt 0.000000 0.531250
vt 0.171875 0.531250
vt 0.171875 0.546875
vt 0.000000 0.546875
vt 0.046875 0.453125
vt 0.062500 0.453125
vt 0.062500 0.468750
vt 0.046875 0.468750
vt 0.343750 0.546875
vt 0.171875 0.531250
vt 0.343750 0.531250
vt 0.578125 0.531250
vt 0.406250 0.531250
vt 0.406250 0.546875
vt 0.578125 0.546875
vn 0.0000 0.0000 -1.0000
vn 1.0000 0.0000 0.0000
vn 0.0000 -0.0000 1.0000
vn -1.0000 0.0000 0.0000
vn 0.0000 1.0000 0.0000
vn 0.0000 -1.0000 0.0000
usemtl m_0
s off
f 52/145/37 55/146/37 53/147/37 50/148/37
f 51/149/38 52/150/38 50/151/38 49/152/38
f 56/153/39 51/154/39 49/155/39 54/156/39
f 55/157/40 56/158/40 54/159/40 53/160/40
f 54/161/41 49/155/41 50/162/41 53/163/41
f 55/164/42 52/165/42 51/166/42 56/167/42
v 0.906250 0.500000 0.843750
v 0.906250 0.500000 0.156250
v 0.906250 0.062500 0.843750
v 0.906250 0.062500 0.156250
v 0.843750 0.500000 0.156250
v 0.843750 0.500000 0.843750
v 0.843750 0.062500 0.156250
v 0.843750 0.062500 0.843750
vt 0.234375 0.421875
vt 0.250000 0.421875
vt 0.250000 0.531250
vt 0.234375 0.531250
vt 0.171875 0.890625
vt 0.343750 0.890625
vt 0.343750 1.000000
vt 0.171875 1.000000
vt 0.250000 0.421875
vt 0.265625 0.421875
vt 0.265625 0.531250
vt 0.250000 0.531250
vt 0.171875 0.781250
vt 0.343750 0.781250
vt 0.343750 0.890625
vt 0.171875 0.890625
vt 0.015625 0.531250
vt 0.000000 0.531250
vt 0.000000 0.359375
vt 0.015625 0.359375
vt 0.031250 0.359375
vt 0.015625 0.359375
vt 0.015625 0.531250
vt 0.031250 0.531250
vn 0.0000 0.0000 -1.0000
vn 1.0000 0.0000 0.0000
vn 0.0000 -0.0000 1.0000
vn -1.0000 0.0000 0.0000
vn 0.0000 1.0000 0.0000
vn 0.0000 -1.0000 -0.0000
usemtl m_0
s off
f 60/168/43 63/169/43 61/170/43 58/171/43
f 59/172/44 60/173/44 58/174/44 57/175/44
f 64/176/45 59/177/45 57/178/45 62/179/45
f 63/180/46 64/181/46 62/182/46 61/183/46
f 62/184/47 57/185/47 58/186/47 61/187/47
f 63/188/48 60/189/48 59/190/48 64/191/48
v 0.843750 0.062500 0.843750
v 0.843750 0.062500 0.156250
v 0.843750 -0.000000 0.843750
v 0.843750 -0.000000 0.156250
v 0.156250 0.062500 0.156250
v 0.156250 0.062500 0.843750
v 0.156250 -0.000000 0.156250
v 0.156250 -0.000000 0.843750
vt 0.031250 0.515625
vt 0.203125 0.515625
vt 0.203125 0.531250
vt 0.031250 0.531250
vt 0.406250 0.515625
vt 0.578125 0.515625
vt 0.578125 0.531250
vt 0.406250 0.531250
vt 0.031250 0.500000
vt 0.203125 0.500000
vt 0.203125 0.515625
vt 0.031250 0.515625
vt 0.406250 0.500000
vt 0.578125 0.500000
vt 0.578125 0.515625
vt 0.406250 0.515625
vt 0.171875 1.000000
vt 0.000000 1.000000
vt 0.000000 0.828125
vt 0.171875 0.828125
vt 0.171875 0.656250
vt 0.000000 0.656250
vt 0.000000 0.828125
vt 0.171875 0.828125
vn 0.0000 0.0000 -1.0000
vn 1.0000 0.0000 0.0000
vn 0.0000 0.0000 1.0000
vn -1.0000 0.0000 0.0000
vn 0.0000 1.0000 0.0000
vn 0.0000 -1.0000 -0.0000
usemtl m_0
s off
f 68/192/49 71/193/49 69/194/49 66/195/49
f 67/196/50 68/197/50 66/198/50 65/199/50
f 72/200/51 67/201/51 65/202/51 70/203/51
f 71/204/52 72/205/52 70/206/52 69/207/52
f 70/208/53 65/209/53 66/210/53 69/211/53
f 71/212/54 68/213/54 67/214/54 72/215/54
v 0.843750 0.500000 0.156250
v 0.843750 0.500000 0.093750
v 0.843750 0.062500 0.156250
v 0.843750 0.062500 0.093750
v 0.156250 0.500000 0.093750
v 0.156250 0.500000 0.156250
v 0.156250 0.062500 0.093750
v 0.156250 0.062500 0.156250
vt 0.171875 0.671875
vt 0.343750 0.671875
vt 0.343750 0.781250
vt 0.171875 0.781250
vt 0.265625 0.421875
vt 0.281250 0.421875
vt 0.281250 0.531250
vt 0.265625 0.531250
vt 0.171875 0.562500
vt 0.343750 0.562500
vt 0.343750 0.671875
vt 0.171875 0.671875
vt 0.281250 0.421875
vt 0.296875 0.421875
vt 0.296875 0.531250
vt 0.281250 0.531250
vt 0.203125 0.500000
vt 0.031250 0.500000
vt 0.031250 0.484375
vt 0.203125 0.484375
vt 0.578125 0.484375
vt 0.406250 0.484375
vt 0.406250 0.500000
vt 0.578125 0.500000
vn 0.0000 0.0000 -1.0000
vn 1.0000 0.0000 0.0000
vn 0.0000 -0.0000 1.0000
vn -1.0000 0.0000 0.0000
vn 0.0000 1.0000 0.0000
vn 0.0000 -1.0000 -0.0000
usemtl m_0
s off
f 76/216/55 79/217/55 77/218/55 74/219/55
f 75/220/56 76/221/56 74/222/56 73/223/56
f 80/224/57 75/225/57 73/226/57 78/227/57
f 79/228/58 80/229/58 78/230/58 77/231/58
f 78/232/59 73/233/59 74/234/59 77/235/59
f 79/236/60 76/237/60 75/238/60 80/239/60
v 0.843750 0.500000 0.906250
v 0.843750 0.500000 0.843750
v 0.843750 0.062500 0.906250
v 0.843750 0.062500 0.843750
v 0.156250 0.500000 0.843750
v 0.156250 0.500000 0.906250
v 0.156250 0.062500 0.843750
v 0.156250 0.062500 0.906250
vt 0.000000 0.546875
vt 0.171875 0.546875
vt 0.171875 0.656250
vt 0.000000 0.656250
vt 0.296875 0.421875
vt 0.312500 0.421875
vt 0.312500 0.531250
vt 0.296875 0.531250
vt 0.343750 0.890625
vt 0.515625 0.890625
vt 0.515625 1.000000
vt 0.343750 1.000000
vt 0.312500 0.421875
vt 0.328125 0.421875
vt 0.328125 0.531250
vt 0.312500 0.531250
vt 0.687500 1.000000
vt 0.515625 0.984375
vt 0.687500 0.984375
vt 0.687500 0.968750
vt 0.515625 0.968750
vt 0.515625 0.984375
vt 0.687500 0.984375
vn 0.0000 0.0000 -1.0000
vn 1.0000 0.0000 0.0000
vn 0.0000 -0.0000 1.0000
vn -1.0000 0.0000 0.0000
vn 0.0000 1.0000 0.0000
vn 0.0000 -1.0000 -0.0000
usemtl m_0
s off
f 84/240/61 87/241/61 85/242/61 82/243/61
f 83/244/62 84/245/62 82/246/62 81/247/62
f 88/248/63 83/249/63 81/250/63 86/251/63
f 87/252/64 88/253/64 86/254/64 85/255/64
f 86/256/65 81/250/65 82/257/65 85/258/65
f 87/259/66 84/260/66 83/261/66 88/262/66
v 0.156250 0.500000 0.843750
v 0.156250 0.500000 0.156250
v 0.156250 0.062500 0.843750
v 0.156250 0.062500 0.156250
v 0.093750 0.500000 0.156250
v 0.093750 0.500000 0.843750
v 0.093750 0.062500 0.156250
v 0.093750 0.062500 0.843750
vt 0.328125 0.421875
vt 0.343750 0.421875
vt 0.343750 0.531250
vt 0.328125 0.531250
vt 0.343750 0.781250
vt 0.515625 0.781250
vt 0.515625 0.890625
vt 0.343750 0.890625
vt 0.031250 0.375000
vt 0.046875 0.375000
vt 0.046875 0.484375
vt 0.031250 0.484375
vt 0.343750 0.671875
vt 0.515625 0.671875
vt 0.515625 0.781250
vt 0.343750 0.781250
vt 0.218750 0.531250
vt 0.203125 0.531250
vt 0.203125 0.359375
vt 0.218750 0.359375
vt 0.234375 0.359375
vt 0.218750 0.359375
vt 0.218750 0.531250
vt 0.234375 0.531250
vn 0.0000 0.0000 -1.0000
vn 1.0000 0.0000 0.0000
vn 0.0000 -0.0000 1.0000
vn -1.0000 0.0000 0.0000
vn 0.0000 1.0000 0.0000
vn 0.0000 -1.0000 -0.0000
usemtl m_0
s off
f 92/263/67 95/264/67 93/265/67 90/266/67
f 91/267/68 92/268/68 90/269/68 89/270/68
f 96/271/69 91/272/69 89/273/69 94/274/69
f 95/275/70 96/276/70 94/277/70 93/278/70
f 94/279/71 89/280/71 90/281/71 93/282/71
f 95/283/72 92/284/72 91/285/72 96/286/72
v 0.031250 0.500000 0.671875
v 0.031250 0.500000 0.328125
v 0.031250 0.437500 0.671875
v 0.031250 0.437500 0.328125
v -0.031250 0.500000 0.328125
v -0.031250 0.500000 0.671875
v -0.031250 0.437500 0.328125
v -0.031250 0.437500 0.671875
vt 0.531250 0.937500
vt 0.546875 0.937500
vt 0.546875 0.953125
vt 0.531250 0.953125
vt 0.515625 0.843750
vt 0.609375 0.843750
vt 0.609375 0.859375
vt 0.515625 0.859375
vt 0.062500 0.453125
vt 0.078125 0.453125
vt 0.078125 0.468750
vt 0.062500 0.468750
vt 0.515625 0.828125
vt 0.609375 0.828125
vt 0.609375 0.843750
vt 0.515625 0.843750
vt 0.171875 0.484375
vt 0.156250 0.484375
vt 0.156250 0.390625
vt 0.171875 0.390625
vt 0.187500 0.390625
vt 0.171875 0.390625
vt 0.171875 0.484375
vt 0.187500 0.484375
vn 0.0000 0.0000 -1.0000
vn 1.0000 0.0000 0.0000
vn 0.0000 0.0000 1.0000
vn -1.0000 0.0000 0.0000
vn 0.0000 1.0000 0.0000
vn 0.0000 -1.0000 -0.0000
usemtl m_0
s off
f 100/287/73 103/288/73 101/289/73 98/290/73
f 99/291/74 100/292/74 98/293/74 97/294/74
f 104/295/75 99/296/75 97/297/75 102/298/75
f 103/299/76 104/300/76 102/301/76 101/302/76
f 102/303/77 97/304/77 98/305/77 101/306/77
f 103/307/78 100/308/78 99/309/78 104/310/78
v 0.093750 0.484375 0.656250
v 0.093750 0.484375 0.593750
v 0.093750 0.468750 0.656250
v 0.093750 0.468750 0.593750
v 0.031250 0.484375 0.593750
v 0.031250 0.484375 0.656250
v 0.031250 0.468750 0.593750
v 0.031250 0.468750 0.656250
vt 0.531250 0.921875
vt 0.546875 0.921875
vt 0.546875 0.937500
vt 0.531250 0.937500
vt 0.078125 0.453125
vt 0.093750 0.453125
vt 0.093750 0.468750
vt 0.078125 0.468750
vt 0.531250 0.906250
vt 0.546875 0.906250
vt 0.546875 0.921875
vt 0.531250 0.921875
vt 0.093750 0.453125
vt 0.109375 0.453125
vt 0.109375 0.468750
vt 0.093750 0.468750
vt 0.546875 0.906250
vt 0.531250 0.906250
vt 0.531250 0.890625
vt 0.546875 0.890625
vt 0.125000 0.453125
vt 0.109375 0.453125
vt 0.109375 0.468750
vt 0.125000 0.468750
vn 0.0000 0.0000 -1.0000
vn 1.0000 0.0000 0.0000
vn 0.0000 0.0000 1.0000
vn -1.0000 0.0000 0.0000
vn 0.0000 1.0000 0.0000
vn 0.0000 -1.0000 -0.0000
usemtl m_0
s off
f 108/311/79 111/312/79 109/313/79 106/314/79
f 107/315/80 108/316/80 106/317/80 105/318/80
f 112/319/81 107/320/81 105/321/81 110/322/81
f 111/323/82 112/324/82 110/325/82 109/326/82
f 110/327/83 105/328/83 106/329/83 109/330/83
f 111/331/84 108/332/84 107/333/84 112/334/84
v 0.093750 0.484375 0.406250
v 0.093750 0.484375 0.343750
v 0.093750 0.468750 0.406250
v 0.093750 0.468750 0.343750
v 0.031250 0.484375 0.343750
v 0.031250 0.484375 0.406250
v 0.031250 0.468750 0.343750
v 0.031250 0.468750 0.406250
vt 0.531250 0.875000
vt 0.546875 0.875000
vt 0.546875 0.890625
vt 0.531250 0.890625
vt 0.125000 0.453125
vt 0.140625 0.453125
vt 0.140625 0.468750
vt 0.125000 0.468750
vt 0.531250 0.859375
vt 0.546875 0.859375
vt 0.546875 0.875000
vt 0.531250 0.875000
vt 0.531250 0.812500
vt 0.546875 0.812500
vt 0.546875 0.828125
vt 0.531250 0.828125
vt 0.203125 0.468750
vt 0.187500 0.468750
vt 0.187500 0.453125
vt 0.203125 0.453125
vt 0.546875 0.796875
vt 0.531250 0.796875
vt 0.531250 0.812500
vn 0.0000 0.0000 -1.0000
vn 1.0000 0.0000 0.0000
vn 0.0000 0.0000 1.0000
vn -1.0000 0.0000 0.0000
vn 0.0000 1.0000 0.0000
vn 0.0000 -1.0000 0.0000
usemtl m_0
s off
f 116/335/85 119/336/85 117/337/85 114/338/85
f 115/339/86 116/340/86 114/341/86 113/342/86
f 120/343/87 115/344/87 113/345/87 118/346/87
f 119/347/88 120/348/88 118/349/88 117/350/88
f 118/351/89 113/352/89 114/353/89 117/354/89
f 119/355/90 116/356/90 115/357/90 120/348/90
