# Blender v3.2.1 OBJ File: ''
# www.blender.org
mtllib shallow_pan.mtl
v 0.531250 0.125000 -0.437500
v 0.468750 0.125000 -0.437500
v 0.468750 0.187500 -0.437500
v 0.531250 0.187500 -0.437500
v 0.531250 0.125000 0.062500
v 0.531250 0.187500 0.062500
v 0.468750 0.125000 0.062500
v 0.468750 0.187500 0.062500
vt 0.625000 0.312500
vt 0.593750 0.312500
vt 0.593750 0.343750
vt 0.625000 0.343750
vt 0.906250 0.843750
vt 0.656250 0.843750
vt 0.656250 0.875000
vt 0.906250 0.875000
vt 0.687500 0.593750
vt 0.656250 0.593750
vt 0.656250 0.625000
vt 0.687500 0.625000
vt 0.906250 0.812500
vt 0.656250 0.812500
vt 0.656250 0.843750
vt 0.906250 0.843750
vt 0.562500 0.093750
vt 0.531250 0.093750
vt 0.531250 0.343750
vt 0.562500 0.343750
vt 0.593750 0.343750
vt 0.562500 0.343750
vt 0.562500 0.093750
vt 0.593750 0.093750
vn 0.0000 0.0000 -1.0000
vn 1.0000 0.0000 0.0000
vn 0.0000 0.0000 1.0000
vn -1.0000 0.0000 0.0000
vn 0.0000 1.0000 0.0000
vn 0.0000 -1.0000 -0.0000
usemtl m_0
s off
f 1/1/1 2/2/1 3/3/1 4/4/1
f 5/5/2 1/6/2 4/7/2 6/8/2
f 7/9/3 5/10/3 6/11/3 8/12/3
f 2/13/4 7/14/4 8/15/4 3/16/4
f 8/17/5 6/18/5 4/19/5 3/20/5
f 2/21/6 1/22/6 5/23/6 7/24/6
v 0.537500 0.118750 -0.500000
v 0.462500 0.118750 -0.500000
v 0.462500 0.193750 -0.500000
v 0.537500 0.193750 -0.500000
v 0.537500 0.118750 -0.375000
v 0.537500 0.193750 -0.375000
v 0.462500 0.118750 -0.375000
v 0.462500 0.193750 -0.375000
vt 0.687500 0.312500
vt 0.656250 0.312500
vt 0.656250 0.343750
vt 0.687500 0.343750
vt 0.718750 0.781250
vt 0.656250 0.781250
vt 0.656250 0.812500
vt 0.718750 0.812500
vt 0.656250 0.312500
vt 0.625000 0.312500
vt 0.625000 0.343750
vt 0.656250 0.343750
vt 0.718750 0.750000
vt 0.656250 0.750000
vt 0.656250 0.781250
vt 0.718750 0.781250
vt 0.687500 0.687500
vt 0.656250 0.687500
vt 0.656250 0.750000
vt 0.687500 0.750000
vt 0.687500 0.687500
vt 0.656250 0.687500
vt 0.656250 0.625000
vt 0.687500 0.625000
vn 0.0000 0.0000 -1.0000
vn 1.0000 -0.0000 0.0000
vn 0.0000 0.0000 1.0000
vn -1.0000 0.0000 0.0000
vn 0.0000 1.0000 0.0000
vn 0.0000 -1.0000 0.0000
usemtl m_0
s off
f 9/25/7 10/26/7 11/27/7 12/28/7
f 13/29/8 9/30/8 12/31/8 14/32/8
f 15/33/9 13/34/9 14/35/9 16/36/9
f 10/37/10 15/38/10 16/39/10 11/40/10
f 16/41/11 14/42/11 12/43/11 11/44/11
f 10/45/12 9/46/12 13/47/12 15/48/12
v 0.537500 0.118750 -0.015625
v 0.462500 0.118750 -0.015625
v 0.462500 0.193750 -0.015625
v 0.537500 0.193750 -0.015625
v 0.537500 0.118750 0.062500
v 0.537500 0.193750 0.062500
v 0.462500 0.118750 0.062500
v 0.462500 0.193750 0.062500
vt 0.093750 0.281250
vt 0.062500 0.281250
vt 0.062500 0.312500
vt 0.093750 0.312500
vt 0.062500 0.281250
vt 0.031250 0.281250
vt 0.031250 0.312500
vt 0.062500 0.312500
vt 0.031250 0.281250
vt 0.000000 0.281250
vt 0.000000 0.312500
vt 0.031250 0.312500
vt 0.125000 0.281250
vt 0.093750 0.281250
vt 0.093750 0.312500
vt 0.125000 0.312500
vt 0.156250 0.281250
vt 0.125000 0.281250
vt 0.125000 0.312500
vt 0.156250 0.312500
vt 0.187500 0.312500
vt 0.156250 0.312500
vt 0.156250 0.281250
vt 0.187500 0.281250
vn 0.0000 0.0000 -1.0000
vn 1.0000 0.0000 0.0000
vn 0.0000 0.0000 1.0000
vn -1.0000 0.0000 0.0000
vn 0.0000 1.0000 0.0000
vn 0.0000 -1.0000 -0.0000
usemtl m_0
s off
f 17/49/13 18/50/13 19/51/13 20/52/13
f 21/53/14 17/54/14 20/55/14 22/56/14
f 23/57/15 21/58/15 22/59/15 24/60/15
f 18/61/16 23/62/16 24/63/16 19/64/16
f 24/65/17 22/66/17 20/67/17 19/68/17
f 18/69/18 17/70/18 21/71/18 23/72/18
v 0.875000 0.125000 0.125000
v 0.812500 0.125000 0.125000
v 0.812500 0.187500 0.125000
v 0.875000 0.187500 0.125000
v 0.875000 0.125000 0.187500
v 0.875000 0.187500 0.187500
v 0.812500 0.125000 0.187500
v 0.812500 0.187500 0.187500
vt 0.281250 0.281250
vt 0.250000 0.281250
vt 0.250000 0.312500
vt 0.281250 0.312500
vt 0.250000 0.281250
vt 0.218750 0.281250
vt 0.218750 0.312500
vt 0.250000 0.312500
vt 0.218750 0.281250
vt 0.187500 0.281250
vt 0.187500 0.312500
vt 0.218750 0.312500
vt 0.718750 0.718750
vt 0.687500 0.718750
vt 0.687500 0.750000
vt 0.718750 0.750000
vt 0.312500 0.281250
vt 0.281250 0.281250
vt 0.312500 0.312500
vt 0.687500 0.718750
vt 0.687500 0.687500
vt 0.718750 0.687500
vn 0.0000 0.0000 -1.0000
vn 1.0000 0.0000 0.0000
vn 0.0000 0.0000 1.0000
vn -1.0000 0.0000 0.0000
vn 0.0000 1.0000 0.0000
vn 0.0000 -1.0000 0.0000
usemtl m_0
s off
f 25/73/19 26/74/19 27/75/19 28/76/19
f 29/77/20 25/78/20 28/79/20 30/80/20
f 31/81/21 29/82/21 30/83/21 32/84/21
f 26/85/22 31/86/22 32/87/22 27/88/22
f 32/89/23 30/90/23 28/76/23 27/91/23
f 26/85/24 25/92/24 29/93/24 31/94/24
v 0.812500 0.000000 0.187500
v 0.187500 0.000000 0.187500
v 0.187500 0.062500 0.187500
v 0.812500 0.062500 0.187500
v 0.812500 -0.000000 0.812500
v 0.812500 0.062500 0.812500
v 0.187500 -0.000000 0.812500
v 0.187500 0.062500 0.812500
vt 0.625000 0.906250
vt 0.312500 0.906250
vt 0.312500 0.937500
vt 0.625000 0.937500
vt 0.625000 0.937500
vt 0.312500 0.937500
vt 0.312500 0.968750
vt 0.625000 0.968750
vt 0.625000 0.968750
vt 0.312500 0.968750
vt 0.312500 1.000000
vt 0.625000 1.000000
vt 0.625000 0.875000
vt 0.312500 0.875000
vt 0.312500 0.906250
vt 0.625000 0.906250
vt 0.312500 0.687500
vt 0.000000 0.687500
vt 0.000000 1.000000
vt 0.312500 1.000000
vt 0.312500 0.687500
vt 0.000000 0.687500
vt 0.000000 0.375000
vt 0.312500 0.375000
vn 0.0000 0.0000 -1.0000
vn 1.0000 0.0000 0.0000
vn 0.0000 -0.0000 1.0000
vn -1.0000 0.0000 0.0000
vn 0.0000 1.0000 0.0000
vn 0.0000 -1.0000 -0.0000
usemtl m_0
s off
f 33/95/25 34/96/25 35/97/25 36/98/25
f 37/99/26 33/100/26 36/101/26 38/102/26
f 39/103/27 37/104/27 38/105/27 40/106/27
f 34/107/28 39/108/28 40/109/28 35/110/28
f 40/111/29 38/112/29 36/113/29 35/114/29
f 34/115/30 33/116/30 37/117/30 39/118/30
v 0.812500 0.062500 0.125000
v 0.187500 0.062500 0.125000
v 0.187500 0.125000 0.125000
v 0.812500 0.125000 0.125000
v 0.812500 0.062500 0.187500
v 0.812500 0.125000 0.187500
v 0.187500 0.062500 0.187500
v 0.187500 0.125000 0.187500
vt 0.625000 0.812500
vt 0.312500 0.812500
vt 0.312500 0.843750
vt 0.625000 0.843750
vt 0.718750 0.656250
vt 0.687500 0.656250
vt 0.687500 0.687500
vt 0.718750 0.687500
vt 0.625000 0.843750
vt 0.312500 0.843750
vt 0.312500 0.875000
vt 0.625000 0.875000
vt 0.718750 0.625000
vt 0.687500 0.625000
vt 0.687500 0.656250
vt 0.718750 0.656250
vt 0.625000 0.781250
vt 0.312500 0.781250
vt 0.312500 0.812500
vt 0.625000 0.812500
vt 0.625000 0.781250
vt 0.312500 0.781250
vt 0.312500 0.750000
vt 0.625000 0.750000
vn 0.0000 0.0000 -1.0000
vn 1.0000 0.0000 0.0000
vn 0.0000 0.0000 1.0000
vn -1.0000 0.0000 0.0000
vn 0.0000 1.0000 0.0000
vn 0.0000 -1.0000 0.0000
usemtl m_0
s off
f 41/119/31 42/120/31 43/121/31 44/122/31
f 45/123/32 41/124/32 44/125/32 46/126/32
f 47/127/33 45/128/33 46/129/33 48/130/33
f 42/131/34 47/132/34 48/133/34 43/134/34
f 48/135/35 46/136/35 44/137/35 43/138/35
f 42/139/36 41/140/36 45/141/36 47/142/36
v 0.812500 0.062500 0.812500
v 0.187500 0.062500 0.812500
v 0.187500 0.125000 0.812500
v 0.812500 0.125000 0.812500
v 0.812500 0.062500 0.875000
v 0.812500 0.125000 0.875000
v 0.187500 0.062500 0.875000
v 0.187500 0.125000 0.875000
vt 0.625000 0.687500
vt 0.312500 0.687500
vt 0.312500 0.718750
vt 0.625000 0.718750
vt 0.718750 0.593750
vt 0.687500 0.593750
vt 0.687500 0.625000
vt 0.718750 0.625000
vt 0.625000 0.718750
vt 0.312500 0.718750
vt 0.312500 0.750000
vt 0.625000 0.750000
vt 0.718750 0.531250
vt 0.687500 0.531250
vt 0.687500 0.562500
vt 0.718750 0.562500
vt 0.625000 0.656250
vt 0.312500 0.656250
vt 0.312500 0.687500
vt 0.625000 0.687500
vt 0.625000 0.656250
vt 0.312500 0.656250
vt 0.312500 0.625000
vt 0.625000 0.625000
vn 0.0000 0.0000 -1.0000
vn 1.0000 0.0000 0.0000
vn 0.0000 0.0000 1.0000
vn -1.0000 0.0000 0.0000
vn 0.0000 1.0000 0.0000
vn 0.0000 -1.0000 0.0000
usemtl m_0
s off
f 49/143/37 50/144/37 51/145/37 52/146/37
f 53/147/38 49/148/38 52/149/38 54/150/38
f 55/151/39 53/152/39 54/153/39 56/154/39
f 50/155/40 55/156/40 56/157/40 51/158/40
f 56/159/41 54/160/41 52/161/41 51/162/41
f 50/163/42 49/164/42 53/165/42 55/166/42
v 0.875000 0.062500 0.187500
v 0.812500 0.062500 0.187500
v 0.812500 0.125000 0.187500
v 0.875000 0.125000 0.187500
v 0.875000 0.062500 0.812500
v 0.875000 0.125000 0.812500
v 0.812500 0.062500 0.812500
v 0.812500 0.125000 0.812500
vt 0.625000 0.281250
vt 0.593750 0.281250
vt 0.593750 0.312500
vt 0.625000 0.312500
vt 0.625000 0.593750
vt 0.312500 0.593750
vt 0.312500 0.625000
vt 0.625000 0.625000
vt 0.718750 0.500000
vt 0.687500 0.500000
vt 0.687500 0.531250
vt 0.718750 0.531250
vt 0.625000 0.562500
vt 0.312500 0.562500
vt 0.312500 0.593750
vt 0.625000 0.593750
vt 0.343750 0.250000
vt 0.312500 0.250000
vt 0.312500 0.562500
vt 0.343750 0.562500
vt 0.375000 0.562500
vt 0.343750 0.562500
vt 0.343750 0.250000
vt 0.375000 0.250000
vn 0.0000 0.0000 -1.0000
vn 1.0000 0.0000 0.0000
vn 0.0000 0.0000 1.0000
vn -1.0000 0.0000 0.0000
vn 0.0000 1.0000 0.0000
vn 0.0000 -1.0000 -0.0000
usemtl m_0
s off
f 57/167/43 58/168/43 59/169/43 60/170/43
f 61/171/44 57/172/44 60/173/44 62/174/44
f 63/175/45 61/176/45 62/177/45 64/178/45
f 58/179/46 63/180/46 64/181/46 59/182/46
f 64/183/47 62/184/47 60/185/47 59/186/47
f 58/187/48 57/188/48 61/189/48 63/190/48
v 0.187500 0.062500 0.187500
v 0.125000 0.062500 0.187500
v 0.125000 0.125000 0.187500
v 0.187500 0.125000 0.187500
v 0.187500 0.062500 0.812500
v 0.187500 0.125000 0.812500
v 0.125000 0.062500 0.812500
v 0.125000 0.125000 0.812500
vt 0.687500 0.281250
vt 0.656250 0.281250
vt 0.656250 0.312500
vt 0.687500 0.312500
vt 0.687500 0.531250
vt 0.375000 0.531250
vt 0.375000 0.562500
vt 0.687500 0.562500
vt 0.656250 0.281250
vt 0.625000 0.281250
vt 0.625000 0.312500
vt 0.656250 0.312500
vt 0.687500 0.500000
vt 0.375000 0.500000
vt 0.375000 0.531250
vt 0.687500 0.531250
vt 0.406250 0.187500
vt 0.375000 0.187500
vt 0.375000 0.500000
vt 0.406250 0.500000
vt 0.437500 0.500000
vt 0.406250 0.500000
vt 0.406250 0.187500
vt 0.437500 0.187500
vn 0.0000 0.0000 -1.0000
vn 1.0000 0.0000 0.0000
vn 0.0000 0.0000 1.0000
vn -1.0000 0.0000 0.0000
vn 0.0000 1.0000 0.0000
vn 0.0000 -1.0000 -0.0000
usemtl m_0
s off
f 65/191/49 66/192/49 67/193/49 68/194/49
f 69/195/50 65/196/50 68/197/50 70/198/50
f 71/199/51 69/200/51 70/201/51 72/202/51
f 66/203/52 71/204/52 72/205/52 67/206/52
f 72/207/53 70/208/53 68/209/53 67/210/53
f 66/211/54 65/212/54 69/213/54 71/214/54
v 0.937500 0.125000 0.187500
v 0.875000 0.125000 0.187500
v 0.875000 0.187500 0.187500
v 0.937500 0.187500 0.187500
v 0.937500 0.125000 0.812500
v 0.937500 0.187500 0.812500
v 0.875000 0.125000 0.812500
v 0.875000 0.187500 0.812500
vt 0.718750 0.281250
vt 0.687500 0.281250
vt 0.687500 0.312500
vt 0.718750 0.312500
vt 0.750000 0.468750
vt 0.437500 0.468750
vt 0.437500 0.500000
vt 0.750000 0.500000
vt 0.718750 0.312500
vt 0.687500 0.312500
vt 0.687500 0.343750
vt 0.718750 0.343750
vt 0.750000 0.437500
vt 0.437500 0.437500
vt 0.437500 0.468750
vt 0.750000 0.468750
vt 0.468750 0.125000
vt 0.437500 0.125000
vt 0.437500 0.437500
vt 0.468750 0.437500
vt 0.500000 0.437500
vt 0.468750 0.437500
vt 0.468750 0.125000
vt 0.500000 0.125000
vn 0.0000 0.0000 -1.0000
vn 1.0000 0.0000 0.0000
vn 0.0000 0.0000 1.0000
vn -1.0000 0.0000 0.0000
vn 0.0000 1.0000 0.0000
vn 0.0000 -1.0000 -0.0000
usemtl m_0
s off
f 73/215/55 74/216/55 75/217/55 76/218/55
f 77/219/56 73/220/56 76/221/56 78/222/56
f 79/223/57 77/224/57 78/225/57 80/226/57
f 74/227/58 79/228/58 80/229/58 75/230/58
f 80/231/59 78/232/59 76/233/59 75/234/59
f 74/235/60 73/236/60 77/237/60 79/238/60
v 0.812500 0.125000 0.875000
v 0.187500 0.125000 0.875000
v 0.187500 0.187500 0.875000
v 0.812500 0.187500 0.875000
v 0.812500 0.125000 0.937500
v 0.812500 0.187500 0.937500
v 0.187500 0.125000 0.937500
v 0.187500 0.187500 0.937500
vt 0.812500 0.375000
vt 0.500000 0.375000
vt 0.500000 0.406250
vt 0.812500 0.406250
vt 0.031250 0.250000
vt 0.000000 0.250000
vt 0.000000 0.281250
vt 0.031250 0.281250
vt 0.812500 0.406250
vt 0.500000 0.406250
vt 0.500000 0.437500
vt 0.812500 0.437500
vt 0.062500 0.250000
vt 0.031250 0.250000
vt 0.031250 0.281250
vt 0.062500 0.281250
vt 0.312500 0.343750
vt 0.000000 0.343750
vt 0.000000 0.375000
vt 0.312500 0.375000
vt 0.937500 1.000000
vt 0.625000 1.000000
vt 0.625000 0.968750
vt 0.937500 0.968750
vn 0.0000 0.0000 -1.0000
vn 1.0000 0.0000 0.0000
vn 0.0000 0.0000 1.0000
vn -1.0000 0.0000 0.0000
vn 0.0000 1.0000 0.0000
vn 0.0000 -1.0000 0.0000
usemtl m_0
s off
f 81/239/61 82/240/61 83/241/61 84/242/61
f 85/243/62 81/244/62 84/245/62 86/246/62
f 87/247/63 85/248/63 86/249/63 88/250/63
f 82/251/64 87/252/64 88/253/64 83/254/64
f 88/255/65 86/256/65 84/257/65 83/258/65
f 82/259/66 81/260/66 85/261/66 87/262/66
v 0.125000 0.125000 0.187500
v 0.062500 0.125000 0.187500
v 0.062500 0.187500 0.187500
v 0.125000 0.187500 0.187500
v 0.125000 0.125000 0.812500
v 0.125000 0.187500 0.812500
v 0.062500 0.125000 0.812500
v 0.062500 0.187500 0.812500
vt 0.125000 0.250000
vt 0.093750 0.250000
vt 0.093750 0.281250
vt 0.125000 0.281250
vt 0.937500 0.937500
vt 0.625000 0.937500
vt 0.625000 0.968750
vt 0.937500 0.968750
vt 0.093750 0.250000
vt 0.062500 0.250000
vt 0.062500 0.281250
vt 0.093750 0.281250
vt 0.937500 0.906250
vt 0.625000 0.906250
vt 0.625000 0.937500
vt 0.937500 0.937500
vt 0.656250 0.593750
vt 0.625000 0.593750
vt 0.625000 0.906250
vt 0.656250 0.906250
vt 0.531250 0.375000
vt 0.500000 0.375000
vt 0.500000 0.062500
vt 0.531250 0.062500
vn 0.0000 0.0000 -1.0000
vn 1.0000 0.0000 0.0000
vn 0.0000 0.0000 1.0000
vn -1.0000 0.0000 0.0000
vn 0.0000 1.0000 0.0000
vn 0.0000 -1.0000 -0.0000
usemtl m_0
s off
f 89/263/67 90/264/67 91/265/67 92/266/67
f 93/267/68 89/268/68 92/269/68 94/270/68
f 95/271/69 93/272/69 94/273/69 96/274/69
f 90/275/70 95/276/70 96/277/70 91/278/70
f 96/279/71 94/280/71 92/281/71 91/282/71
f 90/283/72 89/284/72 93/285/72 95/286/72
v 0.812500 0.125000 0.062500
v 0.187500 0.125000 0.062500
v 0.187500 0.187500 0.062500
v 0.812500 0.187500 0.062500
v 0.812500 0.125000 0.125000
v 0.812500 0.187500 0.125000
v 0.187500 0.125000 0.125000
v 0.187500 0.187500 0.125000
vt 0.843750 0.343750
vt 0.531250 0.343750
vt 0.531250 0.375000
vt 0.843750 0.375000
vt 0.156250 0.250000
vt 0.125000 0.250000
vt 0.125000 0.281250
vt 0.156250 0.281250
vt 0.937500 0.562500
vt 0.625000 0.562500
vt 0.625000 0.593750
vt 0.937500 0.593750
vt 0.187500 0.250000
vt 0.156250 0.250000
vt 0.156250 0.281250
vt 0.187500 0.281250
vt 0.312500 0.312500
vt 0.000000 0.312500
vt 0.000000 0.343750
vt 0.312500 0.343750
vt 0.968750 0.906250
vt 0.656250 0.906250
vt 0.656250 0.875000
vt 0.968750 0.875000
vn 0.0000 0.0000 -1.0000
vn 1.0000 0.0000 0.0000
vn 0.0000 0.0000 1.0000
vn -1.0000 0.0000 0.0000
vn 0.0000 1.0000 0.0000
vn 0.0000 -1.0000 0.0000
usemtl m_0
s off
f 97/287/73 98/288/73 99/289/73 100/290/73
f 101/291/74 97/292/74 100/293/74 102/294/74
f 103/295/75 101/296/75 102/297/75 104/298/75
f 98/299/76 103/300/76 104/301/76 99/302/76
f 104/303/77 102/304/77 100/305/77 99/306/77
f 98/307/78 97/308/78 101/309/78 103/310/78
v 0.187500 0.125000 0.812500
v 0.125000 0.125000 0.812500
v 0.125000 0.187500 0.812500
v 0.187500 0.187500 0.812500
v 0.187500 0.125000 0.875000
v 0.187500 0.187500 0.875000
v 0.125000 0.125000 0.875000
v 0.125000 0.187500 0.875000
vt 0.250000 0.250000
vt 0.218750 0.250000
vt 0.218750 0.281250
vt 0.250000 0.281250
vt 0.750000 0.781250
vt 0.718750 0.781250
vt 0.718750 0.812500
vt 0.750000 0.812500
vt 0.218750 0.250000
vt 0.187500 0.250000
vt 0.187500 0.281250
vt 0.218750 0.281250
vt 0.750000 0.750000
vt 0.718750 0.750000
vt 0.718750 0.781250
vt 0.750000 0.781250
vt 0.281250 0.250000
vt 0.250000 0.250000
vt 0.281250 0.281250
vt 0.718750 0.750000
vt 0.718750 0.718750
vt 0.750000 0.718750
vn 0.0000 0.0000 -1.0000
vn 1.0000 0.0000 0.0000
vn 0.0000 0.0000 1.0000
vn -1.0000 0.0000 0.0000
vn 0.0000 1.0000 0.0000
vn 0.0000 -1.0000 0.0000
usemtl m_0
s off
f 105/311/79 106/312/79 107/313/79 108/314/79
f 109/315/80 105/316/80 108/317/80 110/318/80
f 111/319/81 109/320/81 110/321/81 112/322/81
f 106/323/82 111/324/82 112/325/82 107/326/82
f 112/327/83 110/328/83 108/314/83 107/329/83
f 106/323/84 105/330/84 109/331/84 111/332/84
v 0.187500 0.125000 0.125000
v 0.125000 0.125000 0.125000
v 0.125000 0.187500 0.125000
v 0.187500 0.187500 0.125000
v 0.187500 0.125000 0.187500
v 0.187500 0.187500 0.187500
v 0.125000 0.125000 0.187500
v 0.125000 0.187500 0.187500
vt 0.750000 0.656250
vt 0.718750 0.656250
vt 0.718750 0.687500
vt 0.750000 0.687500
vt 0.750000 0.687500
vt 0.718750 0.687500
vt 0.718750 0.718750
vt 0.750000 0.718750
vt 0.312500 0.250000
vt 0.281250 0.250000
vt 0.281250 0.281250
vt 0.312500 0.281250
vt 0.750000 0.625000
vt 0.718750 0.625000
vt 0.718750 0.656250
vt 0.750000 0.656250
vt 0.750000 0.593750
vt 0.718750 0.593750
vt 0.718750 0.625000
vt 0.750000 0.625000
vt 0.750000 0.562500
vt 0.718750 0.562500
vt 0.718750 0.531250
vt 0.750000 0.531250
vn 0.0000 0.0000 -1.0000
vn 1.0000 0.0000 0.0000
vn 0.0000 0.0000 1.0000
vn -1.0000 0.0000 0.0000
vn 0.0000 1.0000 0.0000
vn 0.0000 -1.0000 0.0000
usemtl m_0
s off
f 113/333/85 114/334/85 115/335/85 116/336/85
f 117/337/86 113/338/86 116/339/86 118/340/86
f 119/341/87 117/342/87 118/343/87 120/344/87
f 114/345/88 119/346/88 120/347/88 115/348/88
f 120/349/89 118/350/89 116/351/89 115/352/89
f 114/353/90 113/354/90 117/355/90 119/356/90
v 0.875000 0.125000 0.812500
v 0.812500 0.125000 0.812500
v 0.812500 0.187500 0.812500
v 0.875000 0.187500 0.812500
v 0.875000 0.125000 0.875000
v 0.875000 0.187500 0.875000
v 0.812500 0.125000 0.875000
v 0.812500 0.187500 0.875000
vt 0.656250 0.250000
vt 0.625000 0.250000
vt 0.625000 0.281250
vt 0.656250 0.281250
vt 0.625000 0.250000
vt 0.593750 0.250000
vt 0.593750 0.281250
vt 0.625000 0.281250
vt 0.750000 0.500000
vt 0.718750 0.500000
vt 0.718750 0.531250
vt 0.750000 0.531250
vt 0.687500 0.250000
vt 0.656250 0.250000
vt 0.656250 0.281250
vt 0.687500 0.281250
vt 0.750000 0.312500
vt 0.718750 0.312500
vt 0.718750 0.343750
vt 0.750000 0.343750
vt 0.718750 0.281250
vt 0.687500 0.281250
vt 0.687500 0.250000
vt 0.718750 0.250000
vn 0.0000 0.0000 -1.0000
vn 1.0000 0.0000 0.0000
vn 0.0000 0.0000 1.0000
vn -1.0000 0.0000 0.0000
vn 0.0000 1.0000 0.0000
vn 0.0000 -1.0000 0.0000
usemtl m_0
s off
f 121/357/91 122/358/91 123/359/91 124/360/91
f 125/361/92 121/362/92 124/363/92 126/364/92
f 127/365/93 125/366/93 126/367/93 128/368/93
f 122/369/94 127/370/94 128/371/94 123/372/94
f 128/373/95 126/374/95 124/375/95 123/376/95
f 122/377/96 121/378/96 125/379/96 127/380/96
