# Blender v3.2.1 OBJ File: ''
# www.blender.org
mtllib strawberry_bush_age0.mtl
v 0.853553 -0.000000 0.853553
v 0.146447 0.000000 0.146447
v 0.146447 1.000000 0.146447
v 0.853553 1.000000 0.853553
v 0.853553 -0.000000 0.853553
v 0.853553 1.000000 0.853553
v 0.146447 0.000000 0.146447
v 0.146447 1.000000 0.146447
vt 0.500000 0.500000
vt 1.000000 0.500000
vt 1.000000 1.000000
vt 0.500000 1.000000
vt 0.000000 0.500000
vt 0.000000 0.500000
vt 0.000000 1.000000
vt 0.000000 1.000000
vt 0.500000 0.000000
vt 1.000000 0.000000
vt 1.000000 0.500000
vt 0.500000 0.500000
vt 0.000000 0.500000
vt 0.000000 0.500000
vt 0.000000 1.000000
vt 0.000000 1.000000
vt 0.500000 1.000000
vt 0.500000 1.000000
vt 0.500000 1.000000
vt 0.000000 1.000000
vt 0.000000 1.000000
vt 0.500000 1.000000
vn 0.7071 0.0000 -0.7071
vn 0.0000 0.0000 0.7071
vn 0.7071 0.0000 0.7071
vn -0.7071 -0.0000 0.7071
vn 0.0000 0.0000 -0.7071
vn -0.7071 -0.0000 -0.7071
vn 0.0000 1.0000 -0.0001
vn 0.0000 0.0000 -0.0000
vn -0.0000 1.0000 -0.0000
vn 0.0000 0.0000 -0.0001
vn 0.0000 -1.0000 -0.0001
vn -0.0000 -1.0000 -0.0000
usemtl m_0
s off
f 1/1/1 2/2/1 3/3/1 4/4/1
f 5/5/2 1/6/3 4/7/2 6/8/3
f 7/9/4 5/10/4 6/11/4 8/12/4
f 2/13/5 7/14/6 8/15/5 3/16/6
f 8/17/7 6/8/8 4/7/9 3/18/10
f 2/19/11 1/20/8 5/21/12 7/22/10
v 0.853553 0.000000 0.146447
v 0.146447 -0.000000 0.853553
v 0.146447 1.000000 0.853553
v 0.853553 1.000000 0.146447
v 0.853553 0.000000 0.146447
v 0.853553 1.000000 0.146447
v 0.146447 -0.000000 0.853553
v 0.146447 1.000000 0.853553
vt 0.000000 0.500000
vt 0.500000 0.500000
vt 0.500000 1.000000
vt 0.000000 1.000000
vt 0.000000 0.500000
vt 0.000000 1.000000
vt 0.000000 0.000000
vt 0.500000 0.000000
vt 0.500000 0.500000
vt 0.000000 0.500000
vt 0.000000 0.500000
vt 0.000000 0.500000
vt 0.000000 1.000000
vt 0.000000 1.000000
vt 0.500000 1.000000
vt 0.500000 1.000000
vt 0.000000 1.000000
vt 0.000000 1.000000
vt 0.500000 1.000000
vn -0.7071 0.0000 -0.7071
vn 0.0000 0.0000 -0.7071
vn 0.7071 0.0000 -0.7071
vn 0.7071 -0.0000 0.7071
vn 0.0000 0.0000 0.7071
vn -0.7071 -0.0000 0.7071
vn -0.0000 1.0000 -0.0000
vn 0.0000 0.0000 -0.0001
vn -0.0000 1.0000 -0.0001
vn 0.0000 0.0000 -0.0000
vn 0.0000 -1.0000 -0.0000
vn 0.0000 -1.0000 -0.0001
usemtl m_0
s off
f 9/23/13 10/24/13 11/25/13 12/26/13
f 13/27/14 9/23/15 12/26/14 14/28/15
f 15/29/16 13/30/16 14/31/16 16/32/16
f 10/33/17 15/34/18 16/35/17 11/36/18
f 16/37/19 14/28/20 12/26/21 11/25/22
f 10/38/23 9/39/20 13/40/24 15/41/22
