# Blender v3.2.1 OBJ File: ''
# www.blender.org
mtllib strawberry_bush_age1.mtl
v 0.853553 1.000000 0.853553
v 0.853553 1.000000 0.853553
v 0.853553 -0.000000 0.853553
v 0.853553 -0.000000 0.853553
v 0.146447 1.000000 0.146447
v 0.146447 1.000000 0.146447
v 0.146447 0.000000 0.146447
v 0.146447 0.000000 0.146447
vt 1.000000 0.000000
vt 0.000000 0.000000
vt 0.000000 1.000000
vt 1.000000 1.000000
vt 0.000000 0.500000
vt 0.000000 0.500000
vt 0.000000 1.000000
vt 0.000000 1.000000
vt 0.000000 0.000000
vt 1.000000 0.000000
vt 1.000000 1.000000
vt 0.000000 1.000000
vt 0.000000 0.500000
vt 0.000000 0.500000
vt 0.500000 1.000000
vt 0.500000 1.000000
vt 0.500000 1.000000
vt 0.000000 1.000000
vt 0.000000 1.000000
vt 0.500000 1.000000
vn 0.7071 0.0000 -0.7071
vn 0.0000 0.0000 1.0000
vn -0.7071 -0.0000 0.7071
usemtl m_0
s off
f 4/1/1 7/2/1 5/3/1 2/4/1
f 3/5/2 4/6/2 2/7/2 1/8/2
f 8/9/3 3/10/3 1/11/3 6/12/3
f 7/13/2 8/14/2 6/12/2 5/3/2
f 6/15/2 1/8/2 2/7/2 5/16/2
f 7/17/2 4/18/2 3/19/2 8/20/2
v 0.853553 1.000000 0.146447
v 0.853553 1.000000 0.146447
v 0.853553 0.000000 0.146447
v 0.853553 0.000000 0.146447
v 0.146447 1.000000 0.853553
v 0.146447 1.000000 0.853553
v 0.146447 -0.000000 0.853553
v 0.146447 -0.000000 0.853553
vt 1.000000 0.000000
vt 0.000000 0.000000
vt 0.000000 1.000000
vt 1.000000 1.000000
vt 0.000000 0.500000
vt 0.000000 0.500000
vt 0.000000 1.000000
vt 0.000000 1.000000
vt 0.000000 0.000000
vt 1.000000 0.000000
vt 1.000000 1.000000
vt 0.000000 1.000000
vt 0.000000 0.500000
vt 0.000000 0.500000
vt 0.500000 1.000000
vt 0.500000 1.000000
vt 0.500000 1.000000
vt 0.000000 1.000000
vt 0.000000 1.000000
vt 0.500000 1.000000
vn -0.7071 0.0000 -0.7071
vn 0.0000 0.0000 1.0000
vn 0.7071 -0.0000 0.7071
usemtl m_0
s off
f 12/21/4 15/22/4 13/23/4 10/24/4
f 11/25/5 12/26/5 10/27/5 9/28/5
f 16/29/6 11/30/6 9/31/6 14/32/6
f 15/33/5 16/34/5 14/32/5 13/23/5
f 14/35/5 9/28/5 10/27/5 13/36/5
f 15/37/5 12/38/5 11/39/5 16/40/5
