# Blender v3.2.1 OBJ File: ''
# www.blender.org
mtllib strawberry_bush_age1.mtl
v 0.853598 1.000000 0.146491
v 0.853553 1.000000 0.146447
v 0.853598 0.000000 0.146491
v 0.853553 0.000000 0.146447
v 0.146447 1.000000 0.853553
v 0.146491 1.000000 0.853598
v 0.146447 0.000000 0.853553
v 0.146491 0.000000 0.853598
v 0.146447 1.000000 0.853553
v 0.853553 1.000000 0.146447
v 0.146491 1.000000 0.853598
v 0.853598 1.000000 0.146491
v 0.146491 0.000000 0.853598
v 0.853598 0.000000 0.146491
v 0.146447 0.000000 0.853553
v 0.853553 0.000000 0.146447
v 0.146491 1.000000 0.853598
v 0.853598 1.000000 0.146491
v 0.146491 0.000000 0.853598
v 0.853598 0.000000 0.146491
v 0.853553 1.000000 0.146447
v 0.146447 1.000000 0.853553
v 0.853553 0.000000 0.146447
v 0.146447 0.000000 0.853553
vt 0.000000 0.000000
vt 0.000000 0.500000
vt 0.000000 0.000000
vt 0.000000 0.500000
vt 0.000000 0.000000
vt 0.000000 0.500000
vt 0.000000 0.000000
vt 0.000000 0.500000
vt 0.500000 0.000000
vt 0.500000 0.000000
vt 0.000000 0.000000
vt 0.000000 0.000000
vt 0.500000 0.000000
vt 0.500000 0.000000
vt 0.000000 0.000000
vt 0.000000 0.000000
vt 0.500000 0.500000
vt 0.500000 1.000000
vt 1.000000 0.500000
vt 1.000000 1.000000
vt 0.500000 0.000000
vt 0.500000 0.500000
vt 1.000000 0.000000
vt 1.000000 0.500000
vn 0.7073 0.0000 -0.7069
vn -0.7073 0.0000 0.7069
vn -0.7064 0.0000 0.7078
vn 0.0000 1.0000 0.0000
vn 0.0000 1.0000 -0.0019
vn 0.0000 -1.0000 0.0000
vn 0.7071 0.0000 0.7071
vn -0.7071 0.0000 -0.7071
usemtl m_0
s off
f 1/1/1 3/2/1 2/3/1
f 3/2/1 4/4/1 2/3/1
f 5/5/2 7/6/2 6/7/2
f 7/6/3 8/8/3 6/7/3
f 9/9/4 11/10/4 10/11/4
f 11/10/5 12/12/5 10/11/5
f 13/13/6 15/14/6 14/15/6
f 15/14/6 16/16/6 14/15/6
f 17/17/7 19/18/7 18/19/7
f 19/18/7 20/20/7 18/19/7
f 21/21/8 23/22/8 22/23/8
f 23/22/8 24/24/8 22/23/8
v 0.853509 1.000000 0.853598
v 0.853553 1.000000 0.853553
v 0.853509 0.000000 0.853598
v 0.853553 0.000000 0.853553
v 0.146447 1.000000 0.146447
v 0.146402 1.000000 0.146491
v 0.146447 0.000000 0.146447
v 0.146402 0.000000 0.146491
v 0.146447 1.000000 0.146447
v 0.853553 1.000000 0.853553
v 0.146402 1.000000 0.146491
v 0.853509 1.000000 0.853598
v 0.146402 0.000000 0.146491
v 0.853509 0.000000 0.853598
v 0.146447 0.000000 0.146447
v 0.853553 0.000000 0.853553
v 0.146402 1.000000 0.146491
v 0.853509 1.000000 0.853598
v 0.146402 0.000000 0.146491
v 0.853509 0.000000 0.853598
v 0.853553 1.000000 0.853553
v 0.146447 1.000000 0.146447
v 0.853553 0.000000 0.853553
v 0.146447 0.000000 0.146447
vt 0.000000 0.000000
vt 0.000000 0.500000
vt 0.000000 0.000000
vt 0.000000 0.500000
vt 0.000000 0.000000
vt 0.000000 0.500000
vt 0.000000 0.000000
vt 0.000000 0.500000
vt 0.500000 0.000000
vt 0.500000 0.000000
vt 0.000000 0.000000
vt 0.000000 0.000000
vt 0.500000 0.000000
vt 0.500000 0.000000
vt 0.000000 0.000000
vt 0.000000 0.000000
vt 0.000000 0.500000
vt 0.000000 1.000000
vt 0.500000 0.500000
vt 0.500000 1.000000
vt 0.000000 0.000000
vt 0.000000 0.500000
vt 0.500000 0.000000
vt 0.500000 0.500000
vn 0.7066 0.0000 0.7076
vn 0.7076 0.0000 0.7066
vn -0.7071 0.0000 -0.7071
vn 0.0000 1.0000 0.0000
vn 0.0000 1.0000 0.0019
vn 0.0000 -1.0000 0.0000
vn -0.7071 0.0000 0.7071
vn 0.7071 0.0000 -0.7071
usemtl m_0
s off
f 25/25/9 27/26/9 26/27/9
f 27/26/10 28/28/10 26/27/10
f 29/29/11 31/30/11 30/31/11
f 31/30/11 32/32/11 30/31/11
f 33/33/12 35/34/12 34/35/12
f 35/34/13 36/36/13 34/35/13
f 37/37/14 39/38/14 38/39/14
f 39/38/14 40/40/14 38/39/14
f 41/41/15 43/42/15 42/43/15
f 43/42/15 44/44/15 42/43/15
f 45/45/16 47/46/16 46/47/16
f 47/46/16 48/48/16 46/47/16
